<?xml version="1.0" encoding="UTF-8" standalone="no"?>
<svg width="64px" height="64px" viewBox="0 0 64 64" version="1.1" xmlns="http://www.w3.org/2000/svg" xmlns:xlink="http://www.w3.org/1999/xlink" xmlns:sketch="http://www.bohemiancoding.com/sketch/ns">
    <!-- Generator: Sketch 3.0.3 (7891) - http://www.bohemiancoding.com/sketch -->
    <title>32</title>
    <desc>Created with Sketch.</desc>
    <defs></defs>
    <g id="Page-1" stroke="none" stroke-width="1" fill="none" fill-rule="evenodd" sketch:type="MSPage">
        <g id="32" sketch:type="MSArtboardGroup">
            <path d="M12.4571069,23.5428931 L15.9999999,20.0000001 L12.982233,16.9822331 L9.43933995,20.5251261 L6.95710704,18.0428932 L6.99999985,25.9999999 L14.9571069,26.0428931 L12.4571069,23.5428931 L12.4571069,23.5428931 Z" id="Rectangle-1" fill="#CFD7EB" sketch:type="MSShapeGroup"></path>
            <path d="M16.9999999,13.0000001 L19.9999998,15.9999999 L23.4999999,12.4999998 L25.9999999,14.9999998 L26.0000001,7.00000007 L18.0000001,6.99999994 L20.5000001,9.49999994 L16.9999999,13.0000001 Z" id="Rectangle-2" fill="#CFD7EB" sketch:type="MSShapeGroup"></path>
            <path d="M12.4999999,55.56066 L16.0428929,52.017767 L13.0251259,49 L9.48223291,52.542893 L7,50.0606601 L7.04289281,58.0177667 L14.9999999,58.06066 L12.4999999,55.56066 L12.4999999,55.56066 Z" id="Rectangle-4" fill="#CFD7EB" sketch:type="MSShapeGroup" transform="translate(11.500000, 53.500000) scale(-1, -1) translate(-11.500000, -53.500000) "></path>
            <path d="M20.5000001,41.5 L17,45.0000001 L19.9999999,48 L23.5,44.4999999 L26,46.9999999 L26.0000001,39.0000001 L18.0000001,39 L20.5000001,41.5 L20.5000001,41.5 Z" id="Rectangle-3" fill="#CFD7EB" sketch:type="MSShapeGroup" transform="translate(21.500000, 43.500000) scale(-1, -1) translate(-21.500000, -43.500000) "></path>
            <path d="M44.4571069,23.5428931 L47.9999999,20.0000001 L44.982233,16.9822331 L41.43934,20.5251261 L38.957107,18.0428932 L38.9999998,25.9999999 L46.9571069,26.0428931 L44.4571069,23.5428931 L44.4571069,23.5428931 Z" id="Rectangle-8" fill="#FFFFFF" sketch:type="MSShapeGroup"></path>
            <path d="M48.9999999,13.0000001 L51.9999998,15.9999999 L55.4999999,12.4999998 L57.9999999,14.9999998 L58.0000001,7.00000007 L50.0000001,6.99999994 L52.5000001,9.49999994 L48.9999999,13.0000001 Z" id="Rectangle-7" fill="#FFFFFF" sketch:type="MSShapeGroup"></path>
            <path d="M44.4999999,55.56066 L48.0428929,52.017767 L45.0251259,49 L41.4822329,52.542893 L39,50.0606601 L39.0428928,58.0177667 L46.9999999,58.06066 L44.4999999,55.56066 L44.4999999,55.56066 Z" id="Rectangle-6" fill="#FFFFFF" sketch:type="MSShapeGroup" transform="translate(43.500000, 53.500000) scale(-1, -1) translate(-43.500000, -53.500000) "></path>
            <path d="M52.5000001,41.5 L49,45.0000001 L51.9999999,48 L55.5,44.4999999 L58,46.9999999 L58.0000001,39.0000001 L50.0000001,39 L52.5000001,41.5 L52.5000001,41.5 Z" id="Rectangle-5" fill="#FFFFFF" sketch:type="MSShapeGroup" transform="translate(53.500000, 43.500000) scale(-1, -1) translate(-53.500000, -43.500000) "></path>
        </g>
    </g>
</svg>